PathFileType	4	(X/Y/Z)	26_2_90_p0_0-430_filt_butterworth.trc
DataRate	CameraRate	NumFrames	NumMarkers	Units	OrigDataRate	OrigDataStartFrame	OrigNumFrames
60.0	60.0	5	27	m	60.0	376	430
Frame#	Time	RHip			RKnee			RAnkle			RBigToe			RSmallToe			RHeel			LHip			LKnee			LAnkle			LBigToe			LSmallToe			LHeel			Neck			Head			Nose			RShoulder			RElbow			RWrist			RThumb			RIndex			RPinky			LShoulder			LElbow			LWrist			LThumb			LIndex			LPinky			
		X1	Y1	Z1	X2	Y2	Z2	X3	Y3	Z3	X4	Y4	Z4	X5	Y5	Z5	X6	Y6	Z6	X7	Y7	Z7	X8	Y8	Z8	X9	Y9	Z9	X10	Y10	Z10	X11	Y11	Z11	X12	Y12	Z12	X13	Y13	Z13	X14	Y14	Z14	X15	Y15	Z15	X16	Y16	Z16	X17	Y17	Z17	X18	Y18	Z18	X19	Y19	Z19	X20	Y20	Z20	X21	Y21	Z21	X22	Y22	Z22	X23	Y23	Z23	X24	Y24	Z24	X25	Y25	Z25	X26	Y26	Z26	X27	Y27	Z27	
376	6.266666666666667	0.3105494917247358	0.40311292900494955	1.0650720510897804	0.3059715946862435	-0.09832749706198357	1.072763089733774	0.2837587206660483	-0.576357180081285	1.0746545539167416	0.24325495937359548	-0.5354468444232345	0.8781156479677804	0.29804045442719274	-0.5423274244278834	0.8931947498474384	0.26419958645200337	-0.6544989544964044	1.1528628308759885	0.07554602657209046	0.38353715233448604	1.111649977012317	0.09809353340498314	-0.08627981763740894	1.0664320422088658	0.08221413356877054	-0.5436338117929977	1.0524058450574245	0.09293879276410161	-0.54240117024136	0.9011773134319471	0.03529461939752144	-0.5463956222754216	0.930563706543202	0.1056250774756063	-0.6090195249959334	1.0926701934967888	0.18737412246016716	0.9276350726680368	1.1265312079442178	0.17784372372489954	1.1928793931497275	1.0625455850052046	0.16750983898203536	1.0667175207047102	1.0020565831725743	0.35789967612726936	0.8502258109145994	1.0923644450422934	0.48769600401119395	0.5765525748501474	1.1014806050332955	0.40169638181336575	0.40233880437224284	0.9340033432457622	0.2986963206659302	0.3120752340234635	0.9154473026712563	0.31784093827924076	0.27761981319703916	0.9348303899875879	0.354466887008669	0.23412151022845246	0.9747650561368457	0.008396276933015789	0.8313695311498721	1.106237944967721	-0.047000417995889485	0.5568326830228183	1.1511593711058092	0.00024824448418443224	0.3648352180085082	1.0043730813119327	0.08565262621808331	0.3192787334705928	0.9500926113290438	0.07435367512565455	0.28092777219615594	0.9287240519395525	0.02649778809942654	0.21514872683929925	1.0085463357830404	
377	6.283333333333333	0.310621941245421	0.4028318927568303	1.0680595250468772	0.30667919939897903	-0.09894914768550367	1.0730053263250645	0.2836999422237761	-0.5762645425159123	1.074710184625245	0.24307496446066645	-0.5352099675834762	0.8776426063348516	0.29922805813173475	-0.5431574263382326	0.8949195247144536	0.26472467258838955	-0.6555130670077484	1.1542743512488545	0.07556950126514973	0.38398985650799	1.1135558540823467	0.09894927004501022	-0.08663274047841246	1.0666975610635234	0.08227414663802861	-0.5439043768575117	1.0527196821538918	0.09291301493794701	-0.5429898651409489	0.9013666308491695	0.03536463152999356	-0.547440914753147	0.9303049719826181	0.10554157709236513	-0.6089665616780439	1.092483297685417	0.18716817586629275	0.9288758978850674	1.126807934672563	0.18073133367369282	1.1929218042312035	1.0666488945306165	0.16775133366912684	1.0680188150676635	1.0027550500208693	0.35836809170068024	0.8493840993999292	1.0933043679015984	0.484461023262253	0.5754474340900932	1.094436365627132	0.4012702675857624	0.4014227170406443	0.9324072921340618	0.29732487266356533	0.31011180342821654	0.915136939132567	0.3167529734275545	0.27550325924180646	0.9297344411621875	0.35256414818561155	0.23025854921724948	0.9735355652130326	0.00917813317437509	0.8313467195829645	1.1050943024684485	-0.04571635287459466	0.5579589649758427	1.147711000283023	0.0010700906558035064	0.3632046017722936	1.0054805166227736	0.08806992512266779	0.3134359459962542	0.9568918323461941	0.07530397755543214	0.2769758608783394	0.9292140379911874	0.027468789631293303	0.2120146767961088	1.0092527832365743	
378	6.3	0.3108012750123856	0.40240216519915856	1.0708726199364762	0.3073392758725575	-0.09948447548468148	1.073185633874471	0.2835781904160464	-0.576322296648145	1.0750241931582232	0.24303427667404537	-0.5351112825300666	0.8773589874558028	0.3010502957934326	-0.544694213353776	0.8978654401180236	0.26512680466486194	-0.6564538499136001	1.1554794027924182	0.07607621542635107	0.38419350936539887	1.1154376066243996	0.09949268326310791	-0.08707049377129039	1.066938665765423	0.08220878608308314	-0.54421629157232	1.05305312494046	0.09283732709311218	-0.5432220686435503	0.9015147636121557	0.03580245682139396	-0.5483177760885627	0.9300478664468884	0.10547806004617781	-0.6088409584754753	1.0923469516074313	0.18713793185639238	0.9302668981004552	1.127338263532287	0.18401578383987227	1.1927839207601896	1.069937128277934	0.16775770339754914	1.0694388961902892	1.0027847931025284	0.3593298631796228	0.8482273406433269	1.095440332631353	0.481158900658996	0.5747902107326293	1.0872351621108143	0.40048486126684085	0.40141978687218877	0.9300743201074253	0.29591431463579715	0.3084081298201226	0.9155291259064249	0.3153307610292867	0.2738578499776951	0.9228078775735287	0.350916347469925	0.22861963521586787	0.9705746515154188	0.009845316725598626	0.8313526894597578	1.1045037186337032	-0.04466803070359572	0.5591298885064182	1.1451522446342959	0.001887299376465291	0.36297462887605086	1.005070563804178	0.08947192500844284	0.3089407930681524	0.962541057510935	0.07565949449908876	0.27468768321071735	0.9293234546466529	0.0280440553514257	0.21168869226813058	1.0077202004788495	
379	6.316666666666666	0.31110599226960073	0.4018555764952154	1.0730855333213483	0.30791084442574007	-0.09983963525796119	1.0734000081994775	0.2834718723459531	-0.5761962006410469	1.0753473665972832	0.24334618425743393	-0.5355550492817873	0.8776706129015107	0.3032475680203602	-0.5467136081544276	0.9015414433117427	0.26538167994480477	-0.6571371963593384	1.156278924670347	0.07693588619988354	0.3841334432605522	1.117107771980339	0.09969453935523634	-0.08754608209110881	1.0671416502696427	0.08206499877352702	-0.5444039903678585	1.0533781978702517	0.09281133999203409	-0.5432779733513899	0.9016365234275141	0.036597623519787806	-0.5488492712219666	0.9298468242631648	0.10545884788682186	-0.6086518262536845	1.0922326118659729	0.18747418346589617	0.9316454833653295	1.1279043885010134	0.18723246287285591	1.1923684977543005	1.072253112227241	0.16759822805704278	1.070726303269132	1.002425858385561	0.3605187558871129	0.8470237155884528	1.0981323187085847	0.47784030062360416	0.5744699660379531	1.0801579615769779	0.39913367795662846	0.40203914068445024	0.927065084356542	0.2945825037296655	0.30655207633119486	0.9163693515894045	0.3137104856769608	0.2715781910300764	0.9161418931477079	0.3496422977174032	0.22769573940587146	0.9675943025189913	0.010512739671531171	0.8315242694309788	1.1040885224771384	-0.043761020081907395	0.5601620319159326	1.1431781449949594	0.0031011644972202593	0.36420649225994245	1.0029959461028652	0.09015178832991494	0.30602739946773966	0.9666037383099384	0.07531212543244806	0.27384681389166715	0.9293233391512663	0.02961572845973559	0.2143106063088907	1.0030870609325204	
380	6.333333333333333	0.3114990527139263	0.4011179728941168	1.0744712869657878	0.30835089071741834	-0.0998946095532584	1.0735946925404967	0.2834295740340534	-0.5756874087710719	1.0755518118018415	0.24401289017241862	-0.5364110679877812	0.8787789132561198	0.30548666869693564	-0.5488862896722311	0.9053386027028417	0.26550444526141853	-0.6574169833164136	1.1566541407758293	0.0779528308505409	0.3839016333041513	1.118331670130134	0.09961429851637975	-0.08793071621186443	1.0673357878252667	0.08190957020815479	-0.5442691599472284	1.053610284952746	0.09282574243474428	-0.5433462442337086	0.9017590914890575	0.037642428967085424	-0.5488493179165268	0.9298422409222327	0.10549574387667175	-0.6083863822678666	1.0921506419780385	0.1881544142380726	0.932796613204489	1.1284856747160628	0.1899985280930908	1.1916023666286184	1.074082571065301	0.16739508662912922	1.0716389672123205	1.002062463688391	0.36162892906947586	0.8460000254130933	1.1006473043427285	0.47433735985771774	0.5742899527453984	1.0731551918301279	0.3969796211281606	0.4027335468849728	0.9237501716349361	0.2931416836538273	0.30439188991004923	0.9168858607010437	0.3116857267831373	0.2683859937697714	0.9108267368440817	0.34879448270878066	0.22641824529003401	0.965490003398572	0.011359816779903015	0.8320153044391321	1.1033338429856545	-0.04288010487638225	0.5610654641393623	1.1410236371887068	0.005444223321640747	0.366773834361619	0.9987727646256293	0.09115581026414749	0.3050371137927236	0.9682587485450374	0.07483867521620234	0.2746299952694509	0.9287872488540587	0.03293245106632674	0.21988192882968155	0.9948001512246707	
